<svg width="18" height="18" viewBox="0 0 18 18" fill="none" xmlns="http://www.w3.org/2000/svg">
  <path id="SF Symbol" d="M5.02269 18C5.42287 18 5.70054 17.7738 6.19873 17.304L9.01633 14.6332L14.2595 14.6332C16.6933 14.6332 18 13.1977 18 10.6486L18 3.98453C18 1.43548 16.6933 0 14.2595 0L3.74047 0C1.30672 0 0 1.42678 0 3.98453L0 10.6486C0 13.2064 1.30672 14.6332 3.74047 14.6332L4.13249 14.6332L4.13249 16.8951C4.13249 17.565 4.451 18 5.02269 18L5.02269 18ZM5.35759 16.4079L5.35759 13.885C5.35759 13.4152 5.18609 13.2325 4.74507 13.2325L3.74053 13.2325C2.0908 13.2325 1.31494 12.3364 1.31494 10.6399L1.31494 3.98448C1.31494 2.28802 2.0908 1.40063 3.74053 1.40063L14.2596 1.40063C15.9012 1.40063 16.6852 2.28802 16.6852 3.98448L16.6852 10.6399C16.6852 12.3364 15.9012 13.2325 14.2596 13.2325L8.96739 13.2325C8.51004 13.2325 8.28137 13.3021 7.97102 13.6414L5.35759 16.4079L5.35759 16.4079ZM4.79399 4.91553L13.108 4.91553C13.3693 4.91553 13.5735 4.69803 13.5735 4.41094C13.5735 4.14124 13.3693 3.91504 13.108 3.91504L4.79399 3.91504C4.53265 3.91504 4.32031 4.14124 4.32031 4.41094C4.32031 4.69803 4.53265 4.91553 4.79399 4.91553L4.79399 4.91553ZM4.79399 7.75161L13.108 7.75161C13.3693 7.75161 13.5735 7.52541 13.5735 7.23832C13.5735 6.96862 13.3693 6.74243 13.108 6.74243L4.79399 6.74243C4.53265 6.74243 4.32031 6.96862 4.32031 7.23832C4.32031 7.52541 4.53265 7.75161 4.79399 7.75161L4.79399 7.75161ZM4.79399 10.579L10.2005 10.579C10.4619 10.579 10.6661 10.3615 10.6661 10.0831C10.6661 9.79602 10.4619 9.56982 10.2005 9.56982L4.79399 9.56982C4.53265 9.56982 4.32031 9.79602 4.32031 10.0831C4.32031 10.3615 4.53265 10.579 4.79399 10.579L4.79399 10.579Z" fill="#000000" fill-rule="evenodd" />
</svg>